<svg xmlns="http://www.w3.org/2000/svg" width="32" height="24" viewBox="0 0 32 24">
    <g fill="none" fill-rule="nonzero">
        <path fill="#F0F0F0" d="M0 0h32v24H0z"/>
        <path fill="#F7931A" d="M22.29 10.218c.275-1.886-1.122-2.9-3.032-3.578l.62-2.556-1.512-.387-.604 2.489c-.397-.103-.805-.198-1.212-.293l.609-2.505L15.647 3l-.62 2.555c-.329-.077-.653-.153-.966-.234l.002-.008-2.086-.536-.403 1.662s1.123.264 1.1.28c.612.158.722.575.704.906l-.706 2.912c.042.01.097.027.158.05l-.16-.04-.989 4.08c-.075.19-.265.477-.694.368.016.023-1.099-.281-1.099-.281l-.75 1.78 1.968.505c.366.094.725.193 1.077.286l-.625 2.585 1.51.387.62-2.556c.413.114.814.22 1.206.32l-.618 2.546 1.512.387.626-2.58c2.58.503 4.518.3 5.335-2.099.658-1.931-.033-3.046-1.39-3.773.989-.234 1.733-.902 1.931-2.284zm-3.456 4.984c-.466 1.932-3.63.888-4.655.626l.831-3.425c1.026.264 4.313.785 3.824 2.8zm.468-5.012c-.426 1.758-3.058.864-3.911.645l.753-3.105c.853.22 3.603.627 3.158 2.46z"/>
    </g>
</svg>
