<?xml version="1.0" encoding="UTF-8"?>
<svg width="16px" height="16px" viewBox="0 0 16 16" version="1.1" xmlns="http://www.w3.org/2000/svg" xmlns:xlink="http://www.w3.org/1999/xlink">
    <!-- Generator: sketchtool 51.3 (57544) - http://www.bohemiancoding.com/sketch -->
    <title>0DB56C42-0AB8-42EE-A9E4-6050FCD17DE1</title>
    <desc>Created with sketchtool.</desc>
    <defs></defs>
    <g id="Symbols" stroke="none" stroke-width="1" fill="none" fill-rule="evenodd">
        <g id="Trend--">
            <path d="M10.2105559,1.32682934 C9.79274995,0.891056888 9.11742166,0.891056888 8.69961571,1.32682934 C8.28180976,1.76260179 8.28180976,2.46697055 8.69961571,2.902743 L11.823009,6.94735334 L1.06855742,6.94735334 C0.478713724,6.94735334 0,7.44665271 0,8.06186088 C0,8.67706904 0.478713724,9.17636842 1.06855742,9.17636842 L11.9950468,9.17636842 L8.69961571,13.0975356 C8.28180976,13.5321936 8.28180976,14.2376768 8.69961571,14.6734493 C8.90798441,14.8907783 9.18153511,15 9.4550858,15 C9.72756795,15 10.0011186,14.8907783 10.2105559,14.6734493 L16,8.15213599 L10.2105559,1.32682934 Z" id="Fill-1-Copy-7" fill="#F47D7D" transform="translate(8.000000, 8.000000) rotate(-270.000000) translate(-8.000000, -8.000000) "></path>
            <rect id="Rectangle" fill-rule="nonzero" x="0" y="0" width="16" height="16"></rect>
        </g>
    </g>
</svg>